<svg width="80" height="80" viewBox="0 0 80 80" fill="none" xmlns="http://www.w3.org/2000/svg">
<path d="M39.9997 0L48.3447 4.32L57.6347 5.73L61.8447 14.13L68.5297 20.73L66.9997 30L68.5297 39.27L61.8447 45.87L57.6347 54.27L48.3447 55.68L39.9997 60L31.6547 55.68L22.3647 54.27L18.1547 45.87L11.4697 39.27L12.9997 30L11.4697 20.73L18.1547 14.13L22.3647 5.73L31.6547 4.32L39.9997 0Z" fill="black"/>
<path d="M20 58.9702V80.0002L40 75.0002L60 80.0002V58.9702L49.91 60.5002L40 65.6302L30.09 60.5002L20 58.9702Z" fill="black"/>
</svg>
