<svg width="40" height="40" viewBox="0 0 40 40" fill="none" xmlns="http://www.w3.org/2000/svg">
<path d="M20 3.33337C10.81 3.33337 3.33331 10.81 3.33331 20V26.905C3.33331 28.6117 4.82831 30 6.66665 30H8.33331C8.77534 30 9.19926 29.8244 9.51182 29.5119C9.82438 29.1993 9.99998 28.7754 9.99998 28.3334V19.7617C9.99998 19.3197 9.82438 18.8958 9.51182 18.5832C9.19926 18.2706 8.77534 18.095 8.33331 18.095H6.81998C7.74665 11.645 13.2966 6.66671 20 6.66671C26.7033 6.66671 32.2533 11.645 33.18 18.095H31.6666C31.2246 18.095 30.8007 18.2706 30.4881 18.5832C30.1756 18.8958 30 19.3197 30 19.7617V30C30 31.8384 28.505 33.3334 26.6666 33.3334H23.3333V31.6667H16.6666V36.6667H26.6666C30.3433 36.6667 33.3333 33.6767 33.3333 30C35.1716 30 36.6666 28.6117 36.6666 26.905V20C36.6666 10.81 29.19 3.33337 20 3.33337Z" fill="black"/>
</svg>
