<svg width="80" height="80" viewBox="0 0 80 80" fill="none" xmlns="http://www.w3.org/2000/svg">
<path d="M39.9781 38.1553C48.336 38.1553 55.1114 31.3799 55.1114 23.022C55.1114 14.6641 48.336 7.88867 39.9781 7.88867C31.6201 7.88867 24.8447 14.6641 24.8447 23.022C24.8447 31.3799 31.6201 38.1553 39.9781 38.1553Z" fill="black"/>
<path d="M26.6663 59.2224C26.7125 57.9929 27.1222 56.8046 27.8436 55.8079C28.565 54.8111 29.5657 54.0506 30.7192 53.6225C31.8727 53.1944 33.1273 53.1179 34.3243 53.4027C35.5213 53.6874 36.607 54.3207 37.4441 55.2224L46.0219 64.4446L61.2219 47.4891C54.9431 43.3048 47.5443 41.12 39.9997 41.2224C34.7661 41.0901 29.567 42.1058 24.768 44.1982C19.969 46.2905 15.6866 49.4087 12.2219 53.3335C11.9288 53.7242 11.7726 54.2006 11.7775 54.6891V66.6668C11.7769 67.8228 12.2268 68.9335 13.0317 69.7633C13.8366 70.5931 14.9331 71.0766 16.0886 71.1113H35.133L28.3108 63.7779C27.7471 63.1664 27.3113 62.4484 27.0289 61.6661C26.7465 60.8838 26.6233 60.053 26.6663 59.2224V59.2224Z" fill="black"/>
<path d="M63.9112 71.111C65.0666 71.0764 66.1631 70.5928 66.968 69.7631C67.7729 68.9333 68.2228 67.8226 68.2223 66.6666V58.311L56.8223 71.111H63.9112Z" fill="black"/>
<path d="M75.0447 41.3776C74.8266 41.1806 74.5716 41.0287 74.2944 40.9309C74.0171 40.833 73.7233 40.7912 73.4298 40.8077C73.1363 40.8243 72.849 40.8989 72.5846 41.0272C72.3201 41.1555 72.0837 41.3351 71.8891 41.5554L46.0669 70.4443L34.5114 58.0221C34.3217 57.8003 34.0902 57.618 33.8301 57.4857C33.5699 57.3534 33.2863 57.2736 32.9953 57.2509C32.7044 57.2282 32.4118 57.263 32.1343 57.3534C31.8568 57.4438 31.5998 57.5879 31.378 57.7776C31.1697 57.9842 31.0044 58.23 30.8916 58.5008C30.7788 58.7716 30.7207 59.0621 30.7207 59.3554C30.7207 59.6488 30.7788 59.9392 30.8916 60.21C31.0044 60.4808 31.1697 60.7266 31.378 60.9332L46.2225 76.9332L75.2002 44.4443C75.5739 44.0113 75.7663 43.451 75.7373 42.8798C75.7083 42.3086 75.4603 41.7706 75.0447 41.3776Z" fill="black"/>
</svg>
