<svg width="80" height="80" viewBox="0 0 80 80" fill="none" xmlns="http://www.w3.org/2000/svg">
<path d="M39.9997 35.511C45.8416 35.511 50.5774 30.8348 50.5774 25.0665C50.5774 19.2982 45.8416 14.6221 39.9997 14.6221C34.1577 14.6221 29.4219 19.2982 29.4219 25.0665C29.4219 30.8348 34.1577 35.511 39.9997 35.511Z" fill="black"/>
<path d="M23.9555 26.111H25.0222V25.1555C25.0286 22.3768 25.8126 19.6554 27.2853 17.2991C28.7579 14.9427 30.8606 13.0456 33.3555 11.8221C32.6169 10.1212 31.4314 8.65198 29.9249 7.57065C28.4184 6.48932 26.6471 5.83622 24.7993 5.6807C22.9514 5.52519 21.0959 5.87307 19.4299 6.68739C17.7638 7.50172 16.3494 8.75209 15.337 10.3057C14.3245 11.8593 13.7517 13.6581 13.6794 15.5111C13.6071 17.3641 14.0381 19.2021 14.9265 20.8298C15.815 22.4576 17.1277 23.8143 18.7252 24.7559C20.3228 25.6975 22.1456 26.1888 23.9999 26.1777L23.9555 26.111ZM55.0222 25.0666V26.0221H56.0888C57.9185 26.0038 59.7094 25.4925 61.273 24.5421C62.8366 23.5917 64.1151 22.2374 64.9738 20.6217C65.8326 19.006 66.24 17.1886 66.1529 15.3609C66.0659 13.5332 65.4878 11.7628 64.4794 10.2359C63.4711 8.7091 62.0697 7.48234 60.4229 6.68479C58.7761 5.88724 56.9448 5.54839 55.1216 5.70392C53.2985 5.85944 51.551 6.50358 50.063 7.56854C48.5751 8.6335 47.4018 10.0799 46.6666 11.7555C49.1622 12.9741 51.2672 14.8665 52.7438 17.2187C54.2203 19.571 55.0095 22.2893 55.0222 25.0666ZM49.5333 36.5555C53.9516 37.43 58.2237 38.9264 62.2222 40.9999C62.7855 41.3093 63.2956 41.707 63.7333 42.1777H75.5555V34.5777C75.5576 34.2862 75.4801 33.9996 75.3313 33.749C75.1825 33.4983 74.968 33.2931 74.711 33.1555C68.9514 30.1428 62.5443 28.5792 56.0444 28.5999H54.5777C53.8076 31.7304 52.0363 34.5238 49.5333 36.5555V36.5555ZM14.511 46.4888C14.507 45.3696 14.8092 44.2707 15.385 43.311C15.9609 42.3513 16.7883 41.5674 17.7777 41.0443C21.7761 38.9708 26.0482 37.4744 30.4666 36.5999C27.9756 34.5855 26.2055 31.8173 25.4222 28.711H23.9555C17.4556 28.6903 11.0485 30.2539 5.28882 33.2666C5.03187 33.4042 4.81739 33.6094 4.66857 33.8601C4.51974 34.1108 4.44222 34.3973 4.44438 34.6888V48.8888H14.511V46.4888ZM47.6888 59.311H60.9333V62.4221H47.6888V59.311Z" fill="black"/>
<path d="M72.9107 47.2443H57.644V45.0221C57.644 44.4327 57.4099 43.8675 56.9931 43.4508C56.5764 43.034 56.0112 42.7999 55.4218 42.7999C54.8324 42.7999 54.2672 43.034 53.8504 43.4508C53.4337 43.8675 53.1996 44.4327 53.1996 45.0221V47.2443H48.8885V40.9554C45.9647 40.3415 42.987 40.0214 39.9996 39.9999C32.9857 39.9707 26.072 41.6648 19.8662 44.9332C19.5898 45.0766 19.3584 45.2936 19.1976 45.5603C19.0368 45.827 18.9529 46.1329 18.9551 46.4443V58.911H34.7551V72.4443C34.7551 73.0337 34.9892 73.5989 35.406 74.0157C35.8227 74.4324 36.388 74.6666 36.9773 74.6666H72.9107C73.5 74.6666 74.0653 74.4324 74.482 74.0157C74.8988 73.5989 75.1329 73.0337 75.1329 72.4443V49.4666C75.1329 48.8772 74.8988 48.3119 74.482 47.8952C74.0653 47.4785 73.5 47.2443 72.9107 47.2443ZM70.6884 70.2666H39.1996V51.6888H53.1996V53.711C53.1996 54.3004 53.4337 54.8656 53.8504 55.2823C54.2672 55.6991 54.8324 55.9332 55.4218 55.9332C56.0112 55.9332 56.5764 55.6991 56.9931 55.2823C57.4099 54.8656 57.644 54.3004 57.644 53.711V51.6888H70.6884V70.2666Z" fill="black"/>
</svg>
