<svg width="40" height="40" viewBox="0 0 40 40" fill="none" xmlns="http://www.w3.org/2000/svg">
<path d="M21.6667 31.2222H18.4444C17.8889 31.2222 17.4444 30.8888 17.3333 30.3333L16.7778 28.3333L16.3333 28.1111L14.5555 29.1111C14.1111 29.3333 13.5555 29.3333 13.2222 28.8888L10.8889 26.5555C10.5555 26.2222 10.4444 25.6666 10.6667 25.2222L11.6667 23.4444L11.4444 22.9999L9.44443 22.4444C8.99999 22.3333 8.55554 21.8888 8.55554 21.3333V18.1111C8.55554 17.5555 8.88888 17.1111 9.44443 16.9999L11.4444 16.4444L11.6667 15.9999L10.6667 14.2222C10.4444 13.7777 10.4444 13.2222 10.8889 12.8888L13.2222 10.5555C13.5555 10.2222 14.1111 10.1111 14.5555 10.3333L16.3333 11.3333L16.7778 11.1111L17.3333 9.11106C17.4444 8.66661 17.8889 8.22217 18.4444 8.22217H21.6667C22.2222 8.22217 22.6667 8.5555 22.7778 9.11106L23.3333 11.1111L23.7778 11.3333L25.5555 10.3333C26 10.1111 26.5555 10.1111 26.8889 10.5555L29.2222 12.8888C29.5555 13.2222 29.6667 13.7777 29.4444 14.2222L28.4444 15.9999L28.6667 16.4444L30.6667 16.9999C31.1111 17.1111 31.5555 17.5555 31.5555 18.1111V21.3333C31.5555 21.8888 31.2222 22.3333 30.6667 22.4444L28.6667 22.9999L28.4444 23.4444L29.4444 25.2222C29.6667 25.6666 29.6667 26.2222 29.2222 26.5555L26.8889 28.8888C26.5555 29.2222 26 29.3333 25.5555 29.1111L23.7778 28.1111L23.3333 28.3333L22.7778 30.3333C22.5555 30.8888 22.1111 31.2222 21.6667 31.2222ZM19.2222 28.9999H20.7778L21.3333 26.6666L21.8889 26.4444C22.3333 26.3333 22.6667 26.1111 23.1111 25.9999L23.6667 25.6666L25.7778 26.8888L26.8889 25.7777L25.6667 23.6666L26 23.1111C26.2222 22.7777 26.3333 22.3333 26.4444 21.8888L26.6667 21.3333L29 20.7777V19.2222L26.6667 18.6666L26.4444 18.1111C26.3333 17.6666 26.1111 17.3333 26 16.8888L25.6667 16.3333L26.8889 14.2222L25.7778 13.1111L23.6667 14.3333L23.1111 13.9999C22.7778 13.7777 22.3333 13.6666 21.8889 13.5555L21.3333 13.3333L20.7778 10.9999H19.2222L18.6667 13.3333L18.1111 13.5555C17.6667 13.6666 17.3333 13.8888 16.8889 13.9999L16.3333 14.3333L14.2222 13.1111L13.1111 14.2222L14.3333 16.3333L14 16.8888C13.7778 17.2222 13.6667 17.6666 13.5555 18.1111L13.3333 18.6666L11 19.2222V20.7777L13.3333 21.3333L13.5555 21.8888C13.6667 22.3333 13.8889 22.6666 14 23.1111L14.3333 23.6666L13.1111 25.7777L14.2222 26.8888L16.3333 25.6666L16.8889 25.9999C17.2222 26.2222 17.6667 26.3333 18.1111 26.4444L18.6667 26.6666L19.2222 28.9999Z" fill="black"/>
<path d="M19.9999 24.7777C17.3333 24.7777 15.2222 22.6666 15.2222 19.9999C15.2222 17.3333 17.3333 15.2222 19.9999 15.2222C22.6666 15.2222 24.7777 17.3333 24.7777 19.9999C24.7777 22.6666 22.6666 24.7777 19.9999 24.7777ZM19.9999 17.4444C18.5555 17.4444 17.4444 18.5555 17.4444 19.9999C17.4444 21.4444 18.5555 22.5555 19.9999 22.5555C21.4444 22.5555 22.5555 21.4444 22.5555 19.9999C22.5555 18.5555 21.4444 17.4444 19.9999 17.4444V17.4444Z" fill="black"/>
<path d="M19.9999 2.22217C19.3333 2.22217 18.8888 2.66661 18.8888 3.33328C18.8888 3.99995 19.3333 4.44439 19.9999 4.44439C28.5555 4.44439 35.5555 11.4444 35.5555 19.9999C35.5555 28.5555 28.5555 35.5555 19.9999 35.5555C11.4444 35.5555 4.44439 28.5555 4.44439 19.9999C4.44439 16.8888 5.33328 13.8888 7.11106 11.3333V12.6666C7.11106 13.3333 7.5555 13.7777 8.22217 13.7777C8.88884 13.7777 9.33328 13.3333 9.33328 12.6666V7.11106H3.77772C3.11106 7.11106 2.66661 7.5555 2.66661 8.22217C2.66661 8.88884 3.11106 9.33328 3.77772 9.33328H5.77772C3.44439 12.3333 2.22217 16.1111 2.22217 19.9999C2.22217 29.7777 10.2222 37.7777 19.9999 37.7777C29.7777 37.7777 37.7777 29.7777 37.7777 19.9999C37.7777 10.2222 29.7777 2.22217 19.9999 2.22217Z" fill="black"/>
</svg>
