<svg width="60" height="60" viewBox="0 0 60 60" fill="none" xmlns="http://www.w3.org/2000/svg">
<path d="M31.86 30C32.52 30 33.1538 30.1125 33.7425 30.3225C32.6473 30.7114 31.6995 31.4301 31.0294 32.3796C30.3592 33.3291 29.9996 34.4628 30 35.625V47.9175C27.96 48.4762 25.5262 48.7538 22.725 48.7538C12.9225 48.75 7.5 45.3637 7.5 38.5312V35.625C7.5 34.1332 8.09263 32.7024 9.14752 31.6475C10.2024 30.5926 11.6332 30 13.125 30H31.86ZM22.5 7.5C24.9864 7.5 27.371 8.48772 29.1291 10.2459C30.8873 12.004 31.875 14.3886 31.875 16.875C31.875 19.3614 30.8873 21.746 29.1291 23.5041C27.371 25.2623 24.9864 26.25 22.5 26.25C20.0136 26.25 17.629 25.2623 15.8709 23.5041C14.1127 21.746 13.125 19.3614 13.125 16.875C13.125 14.3886 14.1127 12.004 15.8709 10.2459C17.629 8.48772 20.0136 7.5 22.5 7.5V7.5ZM41.25 11.25C43.2391 11.25 45.1468 12.0402 46.5533 13.4467C47.9598 14.8532 48.75 16.7609 48.75 18.75C48.75 20.7391 47.9598 22.6468 46.5533 24.0533C45.1468 25.4598 43.2391 26.25 41.25 26.25C39.2609 26.25 37.3532 25.4598 35.9467 24.0533C34.5402 22.6468 33.75 20.7391 33.75 18.75C33.75 16.7609 34.5402 14.8532 35.9467 13.4467C37.3532 12.0402 39.2609 11.25 41.25 11.25ZM35.625 33.75C35.1277 33.75 34.6508 33.9475 34.2992 34.2992C33.9475 34.6508 33.75 35.1277 33.75 35.625C33.75 36.1223 33.9475 36.5992 34.2992 36.9508C34.6508 37.3025 35.1277 37.5 35.625 37.5H54.375C54.8723 37.5 55.3492 37.3025 55.7008 36.9508C56.0525 36.5992 56.25 36.1223 56.25 35.625C56.25 35.1277 56.0525 34.6508 55.7008 34.2992C55.3492 33.9475 54.8723 33.75 54.375 33.75H35.625ZM35.625 41.25C35.1277 41.25 34.6508 41.4475 34.2992 41.7992C33.9475 42.1508 33.75 42.6277 33.75 43.125C33.75 43.6223 33.9475 44.0992 34.2992 44.4508C34.6508 44.8025 35.1277 45 35.625 45H54.375C54.8723 45 55.3492 44.8025 55.7008 44.4508C56.0525 44.0992 56.25 43.6223 56.25 43.125C56.25 42.6277 56.0525 42.1508 55.7008 41.7992C55.3492 41.4475 54.8723 41.25 54.375 41.25H35.625ZM35.625 48.75C35.1277 48.75 34.6508 48.9475 34.2992 49.2992C33.9475 49.6508 33.75 50.1277 33.75 50.625C33.75 51.1223 33.9475 51.5992 34.2992 51.9508C34.6508 52.3025 35.1277 52.5 35.625 52.5H54.375C54.8723 52.5 55.3492 52.3025 55.7008 51.9508C56.0525 51.5992 56.25 51.1223 56.25 50.625C56.25 50.1277 56.0525 49.6508 55.7008 49.2992C55.3492 48.9475 54.8723 48.75 54.375 48.75H35.625Z" fill="black"/>
</svg>
