<svg width="30" height="30" viewBox="0 0 30 30" fill="none" xmlns="http://www.w3.org/2000/svg">
<path d="M9.80265 3.17403C8.24265 2.77803 6.60765 2.94603 5.32665 3.66303C4.02165 4.39203 3.10665 5.68503 3.06165 7.41453C2.99265 10.1175 3.61815 13.7445 6.10215 18.0015C8.55465 22.206 11.2621 24.726 13.5091 26.223C14.9281 27.1695 16.4956 27.195 17.8351 26.5785C19.1551 25.971 20.2261 24.7575 20.7826 23.253C20.9212 22.8788 20.9768 22.479 20.9457 22.0813C20.9146 21.6835 20.7976 21.2972 20.6026 20.949L19.1716 18.396C18.7318 17.6103 18.0238 17.0091 17.1772 16.7022C16.3306 16.3954 15.4018 16.4035 14.5606 16.725L13.5616 17.1075C13.0771 17.292 12.6316 17.2065 12.3796 16.9575C11.5321 16.125 10.9261 14.9955 10.6516 13.7775C10.5646 13.3935 10.7416 12.9405 11.1646 12.621L12.0661 11.94C12.795 11.3901 13.2981 10.5931 13.4812 9.69864C13.6643 8.80417 13.5148 7.87362 13.0606 7.08153L11.6026 4.53903C11.4095 4.20242 11.1506 3.90811 10.8414 3.67361C10.5321 3.43911 10.1789 3.26921 9.80265 3.17403V3.17403ZM4.56165 7.45503C4.59165 6.29403 5.17965 5.46453 6.05865 4.97253C6.96165 4.46703 8.19465 4.31253 9.43365 4.62753C9.6152 4.67338 9.78566 4.75532 9.93487 4.86845C10.0841 4.98158 10.209 5.1236 10.3021 5.28603L11.7586 7.82853C12.0311 8.30359 12.1209 8.86169 12.0113 9.39823C11.9016 9.93477 11.6001 10.4129 11.1631 10.743L10.2616 11.424C9.48165 12.012 8.94165 13.02 9.18765 14.1075C9.52065 15.5805 10.2571 16.977 11.3281 18.0285C12.1111 18.7965 13.2271 18.8415 14.0971 18.5085L15.0961 18.126C15.6009 17.9328 16.1583 17.9278 16.6665 18.1117C17.1746 18.2957 17.5996 18.6565 17.8636 19.128L19.2931 21.6825C19.4731 22.0035 19.5031 22.3875 19.3756 22.7325C18.9406 23.91 18.1231 24.7935 17.2081 25.215C16.3126 25.6275 15.3001 25.6155 14.3416 24.975C12.2851 23.604 9.73665 21.2535 7.39665 17.2455C5.05515 13.2255 4.50015 9.87453 4.56315 7.45503H4.56165ZM19.1146 3.09303C18.9408 2.99636 18.7357 2.97271 18.5444 3.02728C18.3531 3.08185 18.1913 3.21018 18.0946 3.38403C17.998 3.55788 17.9743 3.76301 18.0289 3.9543C18.0835 4.14558 18.2118 4.30736 18.3856 4.40403L18.9616 4.72503C20.7611 5.72464 22.2917 7.14505 23.4228 8.86489C24.5538 10.5847 25.2517 12.5528 25.4566 14.601L25.5046 15.0735C25.5103 15.1747 25.5364 15.2736 25.5813 15.3644C25.6263 15.4551 25.6891 15.5359 25.7661 15.6017C25.8431 15.6675 25.9327 15.717 26.0293 15.7473C26.126 15.7776 26.2278 15.788 26.3285 15.7778C26.4293 15.7677 26.527 15.7372 26.6157 15.6883C26.7044 15.6394 26.7823 15.573 26.8446 15.4932C26.9069 15.4134 26.9525 15.3217 26.9784 15.2238C27.0044 15.1259 27.0102 15.0238 26.9956 14.9235L26.9491 14.4525C26.7203 12.1629 25.9404 9.96278 24.6761 8.04021C23.4118 6.11764 21.7007 4.52983 19.6891 3.41253L19.1146 3.09303V3.09303ZM17.3566 7.11303C17.4591 6.94259 17.6251 6.81982 17.818 6.77172C18.011 6.72362 18.2152 6.75412 18.3856 6.85653L18.5716 6.96753C19.7824 7.69346 20.8212 8.67367 21.616 9.84039C22.4108 11.0071 22.9428 12.3325 23.1751 13.725L23.2411 14.1255C23.26 14.2237 23.2591 14.3247 23.2383 14.4226C23.2176 14.5204 23.1775 14.6131 23.1204 14.6952C23.0633 14.7773 22.9904 14.8472 22.9059 14.9007C22.8214 14.9542 22.727 14.9903 22.6284 15.0068C22.5298 15.0233 22.4288 15.0199 22.3315 14.9968C22.2342 14.9737 22.1425 14.9314 22.0618 14.8724C21.9811 14.8133 21.913 14.7387 21.8615 14.653C21.8101 14.5672 21.7763 14.472 21.7621 14.373L21.6946 13.9725C21.4984 12.7945 21.0487 11.6731 20.3766 10.6859C19.7046 9.69864 18.8262 8.86908 17.8021 8.25453L17.6161 8.14203C17.5316 8.09142 17.4579 8.02465 17.3992 7.94554C17.3405 7.86643 17.2979 7.77653 17.274 7.68098C17.25 7.58542 17.2451 7.48608 17.2596 7.38863C17.274 7.29118 17.3075 7.19753 17.3581 7.11303H17.3566Z" fill="#3F78E0"/>
</svg>
