<svg width="30" height="30" viewBox="0 0 30 30" fill="none" xmlns="http://www.w3.org/2000/svg">
<path d="M9.0001 9C9.0001 8.80109 9.07912 8.61032 9.21977 8.46967C9.36042 8.32902 9.55119 8.25 9.7501 8.25H14.2501C14.449 8.25 14.6398 8.32902 14.7804 8.46967C14.9211 8.61032 15.0001 8.80109 15.0001 9C15.0001 9.19891 14.9211 9.38968 14.7804 9.53033C14.6398 9.67098 14.449 9.75 14.2501 9.75H9.7501C9.55119 9.75 9.36042 9.67098 9.21977 9.53033C9.07912 9.38968 9.0001 9.19891 9.0001 9ZM9.7501 11.25C9.55119 11.25 9.36042 11.329 9.21977 11.4697C9.07912 11.6103 9.0001 11.8011 9.0001 12C9.0001 12.1989 9.07912 12.3897 9.21977 12.5303C9.36042 12.671 9.55119 12.75 9.7501 12.75H12.7501C12.949 12.75 13.1398 12.671 13.2804 12.5303C13.4211 12.3897 13.5001 12.1989 13.5001 12C13.5001 11.8011 13.4211 11.6103 13.2804 11.4697C13.1398 11.329 12.949 11.25 12.7501 11.25H9.7501ZM12.0001 1.5C10.4387 1.49947 8.90398 1.90519 7.5468 2.67727C6.18962 3.44936 5.05666 4.56125 4.25924 5.9037C3.46182 7.24615 3.02738 8.77297 2.9986 10.3341C2.96982 11.8953 3.3477 13.4371 4.0951 14.808L3.0301 18.543C2.99263 18.6742 2.99163 18.813 3.02721 18.9447C3.0628 19.0764 3.13362 19.1959 3.23205 19.2903C3.33049 19.3847 3.45281 19.4505 3.58585 19.4806C3.71889 19.5107 3.85762 19.5039 3.9871 19.461L7.4941 18.2925C8.68939 18.9832 10.0276 19.3897 11.4051 19.4805C12.7826 19.5713 14.1625 19.344 15.4382 18.8162C16.7138 18.2884 17.8509 17.4742 18.7615 16.4366C19.6721 15.399 20.3318 14.1658 20.6896 12.8325C21.0474 11.4992 21.0936 10.1014 20.8248 8.7473C20.5559 7.39323 19.9792 6.11914 19.1392 5.02362C18.2992 3.9281 17.2184 3.04051 15.9804 2.4295C14.7425 1.8185 13.3806 1.50046 12.0001 1.5V1.5ZM4.5001 10.5C4.50035 8.83591 5.05403 7.21915 6.07397 5.90427C7.09392 4.58938 8.5222 3.65104 10.134 3.23699C11.7457 2.82293 13.4494 2.95666 14.9768 3.61713C16.5042 4.2776 17.7686 5.4273 18.5709 6.88523C19.3732 8.34315 19.6678 10.0265 19.4084 11.6702C19.149 13.314 18.3503 14.8248 17.138 15.9648C15.9257 17.1048 14.3687 17.8092 12.7122 17.9672C11.0556 18.1252 9.39351 17.7278 7.9876 16.8375C7.89356 16.7779 7.78742 16.7399 7.67689 16.7265C7.56637 16.713 7.45422 16.7243 7.3486 16.7595L4.8616 17.589L5.6266 14.9175C5.65447 14.8191 5.66193 14.7161 5.64852 14.6147C5.63511 14.5133 5.6011 14.4158 5.5486 14.328C4.85989 13.1701 4.49757 11.8473 4.5001 10.5ZM18.4141 22.4205L14.8111 20.6205C15.4711 20.436 16.1056 20.19 16.7056 19.8885L18.7501 20.9115L25.5001 17.5365V16.5C25.5001 16.1022 25.3421 15.7206 25.0608 15.4393C24.7795 15.158 24.3979 15 24.0001 15H21.4891C21.7186 14.52 21.9106 14.0175 22.0651 13.5H24.0001C24.7957 13.5 25.5588 13.8161 26.1214 14.3787C26.684 14.9413 27.0001 15.7044 27.0001 16.5V24C27.0001 24.7956 26.684 25.5587 26.1214 26.1213C25.5588 26.6839 24.7957 27 24.0001 27H13.5001C12.7045 27 11.9414 26.6839 11.3788 26.1213C10.8162 25.5587 10.5001 24.7956 10.5001 24V20.895C10.9906 20.964 11.4901 21 12.0001 21V24C12.0001 24.3978 12.1581 24.7794 12.4394 25.0607C12.7207 25.342 13.1023 25.5 13.5001 25.5H24.0001C24.3979 25.5 24.7795 25.342 25.0608 25.0607C25.3421 24.7794 25.5001 24.3978 25.5001 24V19.2135L19.0861 22.4205C18.9818 22.4728 18.8668 22.5 18.7501 22.5C18.6334 22.5 18.5184 22.4728 18.4141 22.4205V22.4205Z" fill="#3F78E0"/>
</svg>
