<svg width="40" height="40" viewBox="0 0 40 40" fill="none" xmlns="http://www.w3.org/2000/svg">
<path d="M21.24 20C21.68 20 22.1025 20.075 22.495 20.215C21.7649 20.4743 21.133 20.9534 20.6862 21.5864C20.2395 22.2194 19.9997 22.9752 20 23.75V31.945C18.64 32.3175 17.0175 32.5025 15.15 32.5025C8.615 32.5 5 30.2425 5 25.6875V23.75C5 22.7554 5.39509 21.8016 6.09835 21.0983C6.80161 20.3951 7.75544 20 8.75 20H21.24ZM15 5C16.6576 5 18.2473 5.65848 19.4194 6.83058C20.5915 8.00269 21.25 9.5924 21.25 11.25C21.25 12.9076 20.5915 14.4973 19.4194 15.6694C18.2473 16.8415 16.6576 17.5 15 17.5C13.3424 17.5 11.7527 16.8415 10.5806 15.6694C9.40848 14.4973 8.75 12.9076 8.75 11.25C8.75 9.5924 9.40848 8.00269 10.5806 6.83058C11.7527 5.65848 13.3424 5 15 5V5ZM27.5 7.5C28.8261 7.5 30.0979 8.02678 31.0355 8.96447C31.9732 9.90215 32.5 11.1739 32.5 12.5C32.5 13.8261 31.9732 15.0979 31.0355 16.0355C30.0979 16.9732 28.8261 17.5 27.5 17.5C26.1739 17.5 24.9021 16.9732 23.9645 16.0355C23.0268 15.0979 22.5 13.8261 22.5 12.5C22.5 11.1739 23.0268 9.90215 23.9645 8.96447C24.9021 8.02678 26.1739 7.5 27.5 7.5ZM23.75 22.5C23.4185 22.5 23.1005 22.6317 22.8661 22.8661C22.6317 23.1005 22.5 23.4185 22.5 23.75C22.5 24.0815 22.6317 24.3995 22.8661 24.6339C23.1005 24.8683 23.4185 25 23.75 25H36.25C36.5815 25 36.8995 24.8683 37.1339 24.6339C37.3683 24.3995 37.5 24.0815 37.5 23.75C37.5 23.4185 37.3683 23.1005 37.1339 22.8661C36.8995 22.6317 36.5815 22.5 36.25 22.5H23.75ZM23.75 27.5C23.4185 27.5 23.1005 27.6317 22.8661 27.8661C22.6317 28.1005 22.5 28.4185 22.5 28.75C22.5 29.0815 22.6317 29.3995 22.8661 29.6339C23.1005 29.8683 23.4185 30 23.75 30H36.25C36.5815 30 36.8995 29.8683 37.1339 29.6339C37.3683 29.3995 37.5 29.0815 37.5 28.75C37.5 28.4185 37.3683 28.1005 37.1339 27.8661C36.8995 27.6317 36.5815 27.5 36.25 27.5H23.75ZM23.75 32.5C23.4185 32.5 23.1005 32.6317 22.8661 32.8661C22.6317 33.1005 22.5 33.4185 22.5 33.75C22.5 34.0815 22.6317 34.3995 22.8661 34.6339C23.1005 34.8683 23.4185 35 23.75 35H36.25C36.5815 35 36.8995 34.8683 37.1339 34.6339C37.3683 34.3995 37.5 34.0815 37.5 33.75C37.5 33.4185 37.3683 33.1005 37.1339 32.8661C36.8995 32.6317 36.5815 32.5 36.25 32.5H23.75Z" fill="black"/>
</svg>
