<svg width="60" height="60" viewBox="0 0 60 60" fill="none" xmlns="http://www.w3.org/2000/svg">
<path d="M31.86 30C33.3518 30 34.7826 30.5926 35.8375 31.6475C36.8924 32.7024 37.485 34.1332 37.485 35.625L37.4813 38.43C37.8675 45.3187 32.5613 48.7537 22.725 48.7537C12.9225 48.75 7.5 45.3637 7.5 38.5312V35.625C7.5 34.1332 8.09263 32.7024 9.14752 31.6475C10.2024 30.5926 11.6332 30 13.125 30H31.86ZM43.9238 46.5562L41.9963 45.915L41.6888 45.8287C41.1211 45.7081 40.5301 45.7629 39.9943 45.9859C39.4585 46.209 39.0031 46.5897 38.6888 47.0775L36.9375 49.65L36.765 49.9312C36.4347 50.5481 36.309 51.2539 36.4061 51.9468C36.5031 52.6398 36.8179 53.2839 37.305 53.7862L38.4675 54.9525L38.7675 55.2262C39.8925 56.1787 41.4 56.4937 42.7988 56.0587C46.4025 54.9337 49.7175 51.5962 52.74 46.0462C55.7663 40.485 56.835 35.7712 55.9463 31.8937C55.5713 30.2625 54.4088 28.965 52.8938 28.4812L51.3675 27.9937L51.0788 27.9187C50.4068 27.7891 49.7106 27.8979 49.1102 28.2265C48.5099 28.5551 48.043 29.0828 47.79 29.7187L46.5713 32.5987L46.455 32.9175C46.2754 33.4961 46.2595 34.1132 46.4091 34.7003C46.5587 35.2874 46.8679 35.8216 47.3025 36.2437L49.9913 38.7975L49.8975 39.45C49.6725 40.755 49.185 42.0375 48.45 43.3087C47.5875 44.7862 46.515 46.0162 45.225 46.9912L43.9238 46.5562V46.5562ZM39.375 39.1387C39.375 40.3087 39.2288 41.3887 38.9475 42.3825C40.0779 41.9894 41.2943 41.9129 42.465 42.1612L42.57 42.1837L43.08 42.3225L44.295 42.7275C44.9624 41.9288 45.491 41.0237 45.8588 40.05L44.715 38.9625C43.7749 38.0594 43.1042 36.9128 42.7777 35.6507C42.4513 34.3887 42.4819 33.0607 42.8663 31.815L42.8963 31.7212L43.0763 31.2225L43.5975 30H36.8175C38.3775 31.3725 39.36 33.3825 39.36 35.625L39.3525 38.325L39.3788 39.1387H39.375ZM22.5 7.5C24.9864 7.5 27.371 8.48772 29.1291 10.2459C30.8873 12.004 31.875 14.3886 31.875 16.875C31.875 19.3614 30.8873 21.746 29.1291 23.5041C27.371 25.2623 24.9864 26.25 22.5 26.25C20.0136 26.25 17.629 25.2623 15.8709 23.5041C14.1127 21.746 13.125 19.3614 13.125 16.875C13.125 14.3886 14.1127 12.004 15.8709 10.2459C17.629 8.48772 20.0136 7.5 22.5 7.5V7.5ZM41.25 11.25C43.2391 11.25 45.1468 12.0402 46.5533 13.4467C47.9598 14.8532 48.75 16.7609 48.75 18.75C48.75 20.7391 47.9598 22.6468 46.5533 24.0533C45.1468 25.4598 43.2391 26.25 41.25 26.25C39.2609 26.25 37.3532 25.4598 35.9467 24.0533C34.5402 22.6468 33.75 20.7391 33.75 18.75C33.75 16.7609 34.5402 14.8532 35.9467 13.4467C37.3532 12.0402 39.2609 11.25 41.25 11.25Z" fill="black"/>
</svg>
