<svg width="40" height="40" viewBox="0 0 40 40" fill="none" xmlns="http://www.w3.org/2000/svg">
<g clip-path="url(#clip0_88_27)">
<path d="M18.0001 4.15938e-07C17.0828 -0.000196234 16.1668 0.0693374 15.2601 0.208C14.3768 0.343206 13.5049 0.544437 12.6517 0.81C6.73448 2.652 2.12208 7.4664 0.567284 13.504V13.5056C0.418322 14.084 0.298438 14.6696 0.208084 15.26V15.2616C0.162484 15.5592 0.124084 15.8592 0.0928839 16.1608V16.1616C-0.000627083 17.0796 -0.0237613 18.0033 0.0236839 18.9248V18.9256C0.0390429 19.2304 0.062117 19.5348 0.0928839 19.8384V19.8392C0.123684 20.1412 0.162484 20.4408 0.208084 20.7384V20.74C0.298438 21.3304 0.418322 21.916 0.567284 22.4944V22.496C2.12208 28.5336 6.73448 33.348 12.6513 35.19C12.9329 35.2772 13.2169 35.3588 13.5041 35.4328H13.5057C13.7925 35.5068 14.0817 35.5736 14.3745 35.6336H14.3757C14.6681 35.6936 14.9629 35.7468 15.2601 35.792H15.2617C15.5593 35.8376 15.8593 35.876 16.1609 35.9072H16.1617C17.0795 36.0007 18.0031 36.0238 18.9245 35.9764C19.3877 35.9532 19.8445 35.9064 20.2977 35.8484C20.4433 35.83 20.5897 35.8152 20.7345 35.7928L20.7385 35.792C21.6223 35.6569 22.4948 35.4557 23.3485 35.19C25.5824 34.4921 27.6582 33.3641 29.4593 31.8696C27.8397 32.5248 26.0733 32.7988 24.3305 32.6896C22.332 33.5541 20.1776 34.0001 18.0001 34C15.9809 34.0014 13.9797 33.6201 12.1025 32.8764C12.2341 32.7508 12.3817 32.6468 12.5689 32.5928C14.9021 33.1568 13.8869 30.2708 15.4713 29.618C16.5325 27.6724 13.1441 27.362 11.9345 26.654C9.88888 26.3448 10.0805 23.8556 8.22248 23.3172C6.70128 23.0744 7.25368 20.882 6.13848 20.9992C5.17568 21.178 4.79368 19.854 4.25728 19.9484C4.12768 20.0852 3.58528 19.0596 3.00248 20.19C1.60768 19.8812 2.21688 18.4788 2.01488 17.4132C2.07514 15.6841 2.41598 13.9762 3.02408 12.3564C3.36488 12.6644 3.20248 13.6484 3.25888 14.3156C3.92288 14.6 3.61088 11.8048 4.99048 11.7396C5.92888 10.6832 7.01768 9.7836 8.15848 9.0564C8.60368 9.3736 9.56048 9.3352 10.3113 8.6304C9.47488 8.4624 9.41528 7.8236 10.5333 7.5728C12.3125 6.808 9.73088 8.4108 11.1833 8.642C12.7601 9.1068 11.4225 7.2708 12.1701 6.5532C11.3877 6.0204 12.6433 3.9484 11.2749 4.8688C11.7481 4.5304 11.0121 3.8956 11.4349 3.6476C11.6097 4.1372 12.4893 4.8096 12.8021 3.6804C13.4221 3.7864 13.5449 3.1828 13.7285 2.5788C14.1769 2.45539 14.6306 2.35169 15.0881 2.268C14.9345 2.8468 14.3785 3.7408 14.3333 4.32C15.0509 6.412 16.2621 3.5136 17.5381 3.442C18.6401 3.4796 18.8649 2.742 18.8965 2.0264C20.3717 2.1076 21.7921 2.3904 23.1333 2.8428C23.2477 3.8704 23.6909 5.4916 24.8153 5.1336C24.5809 5.1856 25.5617 6.1552 25.0545 6.3176C24.7849 8.132 23.3133 5.108 22.5669 5.1476C21.4513 5.3356 22.7789 5.8876 22.3761 6.158C21.3201 7.0648 23.2901 8.0164 23.1309 6.492C23.2601 7.7212 23.6769 7.6828 24.6733 7.6188C22.7061 7.9508 25.0813 8.6548 25.0201 9.3156C25.6638 9.31379 26.3067 9.36368 26.9425 9.4648C27.0893 9.3544 27.2761 9.3 27.5253 9.3304C27.5048 9.40475 27.4934 9.48131 27.4913 9.5584C27.6385 9.5892 27.7857 9.6224 27.9317 9.6584C27.9829 9.5932 28.2137 9.6676 28.4637 9.8032L28.4741 9.8064C28.8941 9.9276 29.3045 10.0772 29.7061 10.2476C29.7661 10.076 29.8749 10.0148 30.1101 10.2336C30.1861 10.3656 30.2641 10.4648 30.3421 10.5408C30.4649 10.6024 30.5853 10.6688 30.7061 10.7352C31.0701 10.7896 31.3861 10.472 31.4861 10.4484C31.6733 10.3964 31.9077 10.4116 32.1141 10.4508C32.3061 10.8108 32.4837 11.18 32.6489 11.5556C32.5185 11.6092 32.3601 11.6544 32.1973 11.7008C33.8453 12.9624 35.1621 14.6592 35.9433 16.5836C35.8163 14.9458 35.4643 13.3333 34.8973 11.7916C34.8605 11.6912 34.8189 11.5932 34.7801 11.4936C34.7133 11.3216 34.6473 11.1492 34.5757 10.9796C34.5121 10.8308 34.4425 10.6852 34.3757 10.5384C34.3225 10.4224 34.2729 10.3052 34.2177 10.1904C34.1405 10.0308 34.0573 9.8748 33.9753 9.718C33.9225 9.6164 33.8733 9.5128 33.8185 9.4124C33.6822 9.16226 33.5401 8.91539 33.3921 8.672C30.9857 4.712 27.0957 1.752 22.4949 0.5672L22.4897 0.5656C21.9123 0.417292 21.3278 0.297943 20.7385 0.208L20.7353 0.2072C20.4374 0.161563 20.1383 0.123417 19.8385 0.0928004H19.8361C19.533 0.0621951 19.2291 0.0392544 18.9249 0.0240004H18.9245C18.6166 0.00819778 18.3084 0.000195221 18.0001 4.15938e-07V4.15938e-07ZM11.9297 3.1916C11.7725 3.346 11.5245 3.5068 11.2361 3.5548C10.7973 3.9208 10.8017 3.8228 10.9461 3.6328C11.269 3.47466 11.5972 3.32751 11.9301 3.1916H11.9297ZM24.6361 3.4376C24.6889 3.4616 24.7421 3.4848 24.7945 3.5096C24.7893 3.5636 24.7017 3.5056 24.6361 3.4376ZM19.2001 3.5664C18.8781 3.58 18.6393 3.7156 18.7705 4.0656C18.9585 4.2468 19.2325 4.2908 19.4825 4.292C21.0193 4.1012 19.9081 3.5368 19.2001 3.5664ZM24.6453 3.8476C24.7133 3.854 24.8733 3.9144 25.1693 4.064C25.7689 4.82 24.3501 3.8208 24.6453 3.848V3.8476ZM10.3581 3.9344C10.2993 4.3896 9.84288 5.0692 9.37208 5.118C8.99608 5.0832 8.73928 5.6756 8.44848 5.8696C8.43648 5.9256 8.44448 5.5464 8.53248 5.0968C9.11404 4.66851 9.72398 4.28016 10.3581 3.9344V3.9344ZM21.6853 4.4024C21.6657 4.4108 21.6493 4.4472 21.6437 4.5264C21.9257 4.8428 21.7701 4.3652 21.6853 4.4024ZM22.7733 4.664C22.7505 4.6576 22.7485 4.708 22.7945 4.8656C23.0973 5.21 22.8425 4.6828 22.7737 4.664H22.7733ZM25.8557 4.6672C26.1033 4.666 26.7961 5.0972 26.6565 5.5672C25.9873 6.108 26.2965 5.8192 26.1657 5.2204C25.7177 4.824 25.7069 4.668 25.8557 4.6672V4.6672ZM6.44928 6.9256C6.48168 6.9588 6.51608 6.9992 6.55808 7.0624C6.41408 7.5048 6.29048 7.328 6.26008 7.1244C6.32248 7.0572 6.38608 6.9916 6.44928 6.9256ZM9.68608 7.2796C9.73008 7.2804 9.80328 7.3156 9.91008 7.4164C9.67648 7.5924 9.55288 7.278 9.68608 7.2796ZM30.1245 7.5572C30.4085 7.88607 30.679 8.22635 30.9353 8.5772C30.7101 8.9708 30.1637 7.944 30.1245 7.5572ZM6.36968 7.7468C6.39288 7.7416 6.41768 7.7564 6.44288 7.7992C6.10728 8.788 6.20568 7.7832 6.36968 7.7472V7.7468ZM28.1437 8.7632C28.1553 8.76102 28.1673 8.7613 28.1789 8.764C28.3805 8.7976 29.1749 9.2496 29.4917 9.564C29.6853 9.998 28.8557 9.2248 28.6877 9.2748C28.2177 8.9244 28.0877 8.7804 28.1437 8.7632V8.7632ZM5.95568 8.7712C5.99648 8.7792 6.02848 8.8216 6.03768 8.9188C5.43008 9.3408 5.77768 8.7352 5.95568 8.7708V8.7712ZM30.5713 9.5756C30.6021 9.5624 30.6917 9.6124 30.8757 9.786C30.9085 10.226 30.4777 9.6156 30.5713 9.5756ZM31.4581 10.7716C31.3841 10.7816 31.3085 10.8636 31.2525 11.0532C31.3229 11.0972 31.3937 11.1408 31.4633 11.186C31.8497 11.2512 31.6681 10.7444 31.4581 10.772V10.7716ZM3.89608 14.0256C3.86328 14.0256 3.84408 14.1076 3.86328 14.3416C4.21448 14.76 3.99488 14.0244 3.89608 14.0256ZM3.70088 14.62C3.66808 14.6144 3.61888 14.7112 3.55288 15.002C3.75128 15.5784 3.79968 14.6364 3.70088 14.62ZM25.1197 14.7412C24.7483 14.7396 24.3776 14.7731 24.0125 14.8412C23.4737 15.8128 22.7293 16.6812 22.3797 17.8668C22.2757 18.8824 22.6125 20.2864 22.4713 21.3816C22.7993 22.7864 24.1289 23.5908 25.2873 24.2784C26.1593 24.84 27.0681 23.7644 28.0065 23.752C28.8273 22.5448 30.1417 23.4292 30.8837 23.34C30.7586 23.5323 30.6748 23.7484 30.6377 23.9748C31.5465 22.2588 31.6221 20.1084 30.7729 18.3504C29.7817 16.1996 27.4917 14.7248 25.1197 14.7412V14.7412ZM2.69568 14.924C1.99648 14.8516 3.28208 16.0852 3.33288 16.6292C4.62688 16.9784 3.15168 17.3732 4.24608 17.8144C5.89408 18.4076 4.87568 17.0824 4.17648 16.8036C4.45088 16.3636 3.48128 16.0388 3.12488 15.0404C2.93488 14.9708 2.79528 14.934 2.69528 14.924H2.69568ZM23.1077 15.1988C23.0337 15.1988 22.9517 15.336 22.9173 15.744C23.4005 15.86 23.2717 15.1988 23.1081 15.1988H23.1077ZM4.05488 15.4932C4.05033 15.4917 4.0455 15.4912 4.04073 15.4918C4.03597 15.4923 4.03138 15.4939 4.02728 15.4964C3.98968 15.5208 3.98728 15.6384 4.09208 15.894L4.17368 15.948C4.24088 15.7088 4.12648 15.512 4.05488 15.4932ZM22.0721 15.5324C21.9261 15.6132 21.7829 15.698 21.6441 15.7896C21.6541 15.8192 21.6581 15.8456 21.6801 15.8816L21.7429 15.9112H22.1017C23.0305 15.8804 22.5257 15.5904 22.0721 15.5324V15.5324ZM3.05328 16.8352C2.95848 16.8152 2.94528 16.924 3.17208 17.3072C3.86448 17.5476 3.26168 16.8792 3.05328 16.8352ZM5.42728 17.8492C5.34088 17.86 5.26368 17.9524 5.24328 18.1908C6.03608 18.5148 5.68728 17.8168 5.42728 17.8492ZM6.69088 19.1616C6.65568 19.148 6.61968 19.3056 6.59608 19.7788L6.61008 20.04C6.89128 20.79 6.79568 19.2032 6.69088 19.1616V19.1616ZM19.3181 20.2176C19.2285 20.2084 19.2277 20.278 19.4765 20.5148C20.1417 20.6468 19.5153 20.2392 19.3181 20.218V20.2176ZM2.46328 20.3376C2.49848 20.3468 2.52528 20.424 2.54368 20.6444C2.61568 21.1244 2.58168 21.6076 2.52808 22.0916C2.39052 21.5681 2.27971 21.038 2.19608 20.5032C2.30728 20.5264 2.39888 20.3204 2.46328 20.3376V20.3376ZM20.2853 20.44C20.2441 20.4404 20.1897 20.4708 20.1221 20.5484C20.3981 20.982 20.4641 20.4368 20.2853 20.44ZM20.1253 20.914C20.0617 20.9244 19.9725 20.966 19.8525 21.0572C20.1833 21.414 20.3997 20.8696 20.1249 20.914H20.1253ZM19.6601 20.9836C19.6265 20.98 19.5753 21.0296 19.5057 21.1796C19.7037 21.4844 19.7617 20.9944 19.6601 20.9836ZM30.1801 24.3356C30.1461 24.3324 30.0949 24.3816 30.0249 24.532C30.2233 24.8368 30.2809 24.3468 30.1797 24.336L30.1801 24.3356Z" fill="black"/>
<path d="M26.4516 10.998C23.8828 10.65 21.1816 11.2788 18.9636 12.968C14.5276 16.3456 13.6648 22.7144 17.0428 27.1504C20.2048 31.3024 25.9788 32.3036 30.3428 29.6452L31.176 30.7396C31.0949 30.9283 31.0567 31.1152 31.064 31.2875C31.0714 31.4597 31.124 31.6132 31.2184 31.7372L37.2664 39.6792C37.4393 39.9062 37.7409 40.0205 38.1049 39.9969C38.4688 39.9734 38.8653 39.8139 39.2072 39.5536C39.3766 39.4247 39.5274 39.2749 39.6511 39.1128C39.7748 38.9506 39.8689 38.7793 39.9281 38.6087C39.9874 38.438 40.0105 38.2713 39.9962 38.118C39.9819 37.9648 39.9304 37.8281 39.8448 37.7156L33.7968 29.7736C33.7023 29.6497 33.5684 29.5582 33.4043 29.5053C33.2402 29.4525 33.0498 29.4396 32.8464 29.4676L32.0128 28.3728C35.7368 24.8728 36.3076 19.0408 33.146 14.8888C31.4568 12.6704 29.0204 11.346 26.4516 10.998V10.998ZM26.1516 13.2128C27.1767 13.3512 28.1643 13.6909 29.0576 14.2123C29.9509 14.7338 30.7323 15.4267 31.3568 16.2512C31.9852 17.0728 32.4451 18.0103 32.7102 19.0101C32.9753 20.0098 33.0403 21.0521 32.9014 22.077C32.7626 23.1019 32.4227 24.0894 31.9013 24.9826C31.3798 25.8758 30.6871 26.6573 29.8628 27.282C29.0413 27.9104 28.1038 28.3702 27.1041 28.6353C26.1044 28.9003 25.0621 28.9653 24.0373 28.8265C23.0124 28.6877 22.025 28.3478 21.1318 27.8264C20.2386 27.3049 19.4572 26.6122 18.8324 25.788C18.2041 24.9665 17.7442 24.029 17.4791 23.0294C17.214 22.0297 17.149 20.9875 17.2878 19.9626C17.4266 18.9377 17.7664 17.9503 18.2878 17.0571C18.8092 16.1639 19.5018 15.3824 20.326 14.7576C21.1473 14.1288 22.0848 13.6686 23.0846 13.4035C24.0844 13.1384 25.1267 13.0736 26.1516 13.2128V13.2128Z" fill="black"/>
</g>
<defs>
<clipPath id="clip0_88_27">
<rect width="40" height="40" fill="white"/>
</clipPath>
</defs>
</svg>
