<svg width="60" height="60" viewBox="0 0 60 60" fill="none" xmlns="http://www.w3.org/2000/svg">
<path d="M47.975 21.9252C47.2083 21.9252 46.4917 21.7835 45.825 21.5002C45.175 21.2169 44.6 20.8252 44.1 20.3252C43.6 19.8252 43.2083 19.2502 42.925 18.6002C42.6417 17.9335 42.5 17.2169 42.5 16.4502C42.5 15.7002 42.6417 14.9919 42.925 14.3252C43.2083 13.6585 43.6 13.0835 44.1 12.6002C44.6 12.1002 45.175 11.7085 45.825 11.4252C46.4917 11.1252 47.2083 10.9835 47.975 11.0002C48.725 10.9835 49.4333 11.1252 50.1 11.4252C50.7667 11.7085 51.35 12.1002 51.85 12.6002C52.3333 13.0835 52.725 13.6585 53.025 14.3252C53.3083 14.9919 53.45 15.7002 53.45 16.4502C53.45 17.2169 53.3083 17.9335 53.025 18.6002C52.7417 19.2502 52.35 19.8252 51.85 20.3252C51.35 20.8252 50.7667 21.2169 50.1 21.5002C49.4333 21.7835 48.725 21.9252 47.975 21.9252ZM47.975 14.1252C47.325 14.1252 46.75 14.3502 46.25 14.8002C45.8333 15.2502 45.625 15.8002 45.625 16.4502C45.625 17.1002 45.8333 17.6585 46.25 18.1252C46.75 18.5419 47.325 18.7502 47.975 18.7502C48.625 18.7502 49.175 18.5419 49.625 18.1252C50.0917 17.7085 50.325 17.1502 50.325 16.4502C50.325 15.8002 50.0917 15.2502 49.625 14.8002C49.175 14.3502 48.625 14.1252 47.975 14.1252V14.1252ZM55 25.8252V37.5002C55 38.5502 54.8 39.5502 54.4 40.5002C53.9667 41.4502 53.4083 42.2752 52.725 42.9752C52.0083 43.6919 51.175 44.2502 50.225 44.6502C49.2417 45.0669 48.2333 45.2752 47.2 45.2752C46.5667 45.2752 45.9333 45.1835 45.3 45.0002C44.65 44.8835 44.0583 44.6752 43.525 44.3752C43.125 45.6919 42.5333 46.8919 41.75 47.9752C40.9667 49.0585 40.05 49.9835 39 50.7502C37.95 51.5169 36.7917 52.1002 35.525 52.5002C34.2583 52.9502 32.9417 53.1752 31.575 53.1752C29.975 53.1752 28.4667 52.9002 27.05 52.3502C25.6833 51.8002 24.4333 51.0169 23.3 50.0002C22.2 49.0502 21.2917 47.9169 20.575 46.6002C19.8417 45.2669 19.3667 43.8169 19.15 42.2502H7.075C6.525 42.2502 6.03333 42.0419 5.6 41.6252C5.2 41.2252 5 40.7419 5 40.1752V19.3252C5 18.7585 5.2 18.2669 5.6 17.8502C6.03333 17.4502 6.525 17.2502 7.075 17.2502H25C24.5167 16.2502 24.275 15.2085 24.275 14.1252C24.275 13.1085 24.4667 12.1502 24.85 11.2502C25.2167 10.4169 25.7333 9.6502 26.4 8.9502C27.0667 8.3002 27.85 7.78353 28.75 7.4002C29.5833 7.01686 30.5167 6.8252 31.55 6.8252C32.5667 6.8252 33.5167 7.01686 34.4 7.4002C35.2833 7.78353 36.0583 8.3002 36.725 8.9502C37.3917 9.6502 37.9083 10.4169 38.275 11.2502C38.6583 12.1502 38.85 13.1085 38.85 14.1252C38.85 15.1252 38.6583 16.0752 38.275 16.9752C37.9083 17.8585 37.3917 18.6252 36.725 19.2752C36.0583 19.9419 35.2833 20.4669 34.4 20.8502C33.5167 21.2335 32.5667 21.4252 31.55 21.4252C31.3 21.4252 31.0417 21.4085 30.775 21.3752C30.525 21.3419 30.2667 21.3002 30 21.2502V23.5002H52.65C53.3 23.5002 53.8583 23.7252 54.325 24.1752C54.775 24.6252 55 25.1752 55 25.8252V25.8252ZM31.575 10.0002C30.9917 10.0002 30.4667 10.0919 30 10.2752C29.45 10.4919 28.9833 10.7919 28.6 11.1752C28.2333 11.5585 27.9417 12.0002 27.725 12.5002C27.5083 13.0169 27.4 13.5585 27.4 14.1252C27.4 14.7085 27.5083 15.2502 27.725 15.7502C27.9417 16.2502 28.2333 16.6919 28.6 17.0752C28.9833 17.4419 29.45 17.7419 30 17.9752C30.4667 18.1919 30.9917 18.3002 31.575 18.3002C32.1417 18.3002 32.675 18.1919 33.175 17.9752C33.675 17.7419 34.1167 17.4419 34.5 17.0752C34.8833 16.6919 35.1833 16.2502 35.4 15.7502C35.6333 15.2502 35.75 14.7085 35.75 14.1252C35.75 13.5585 35.6333 13.0169 35.4 12.5002C35.1833 12.0002 34.8833 11.5585 34.5 11.1752C34.1167 10.7919 33.675 10.4919 33.175 10.2752C32.675 10.0919 32.1417 10.0002 31.575 10.0002ZM19.45 25.4502H24.15V21.5502H10.85V25.4502H15.55V37.9502H19.45V25.4502ZM40.95 40.6752V26.6252H30V40.1752C30 40.7419 29.8 41.2252 29.4 41.6252C28.9667 42.0419 28.475 42.2502 27.925 42.2502H22.3C22.5167 43.3669 22.9083 44.4085 23.475 45.3752C24.0417 46.3252 24.725 47.1502 25.525 47.8502C26.325 48.5335 27.2417 49.0752 28.275 49.4752C29.2917 49.8252 30.3917 50.0002 31.575 50.0002C32.8583 50.0002 34.0667 49.7752 35.2 49.3252C36.3333 48.8252 37.3333 48.1502 38.2 47.3002C39.05 46.4502 39.7167 45.4585 40.2 44.3252C40.7 43.1919 40.95 41.9752 40.95 40.6752V40.6752ZM51.875 37.5002V26.6252H44.075V40.9002C44.4917 41.3169 44.9667 41.6335 45.5 41.8502C46 42.0502 46.5667 42.1502 47.2 42.1502C47.85 42.1502 48.4583 42.0252 49.025 41.7752C49.5917 41.5252 50.0833 41.1919 50.5 40.7752C50.9333 40.3585 51.2667 39.8585 51.5 39.2752C51.75 38.7085 51.875 38.1169 51.875 37.5002V37.5002Z" fill="black"/>
</svg>
