<svg width="120" height="120" viewBox="0 0 120 120" fill="none" xmlns="http://www.w3.org/2000/svg">
<circle cx="1.09091" cy="1.09091" r="1.09091" fill="#E2626B"/>
<circle cx="1.09091" cy="53.4547" r="1.09091" fill="#E2626B"/>
<circle cx="53.4542" cy="1.09091" r="1.09091" fill="#E2626B"/>
<circle cx="53.4542" cy="53.4547" r="1.09091" fill="#E2626B"/>
<circle cx="1.09091" cy="27.2726" r="1.09091" fill="#E2626B"/>
<circle cx="1.09091" cy="79.6363" r="1.09091" fill="#E2626B"/>
<circle cx="1.09091" cy="105.818" r="1.09091" fill="#E2626B"/>
<circle cx="53.4542" cy="27.2726" r="1.09091" fill="#E2626B"/>
<circle cx="53.4542" cy="79.6363" r="1.09091" fill="#E2626B"/>
<circle cx="53.4542" cy="105.818" r="1.09091" fill="#E2626B"/>
<circle cx="1.09091" cy="14.1817" r="1.09091" fill="#E2626B"/>
<circle cx="1.09091" cy="66.5455" r="1.09091" fill="#E2626B"/>
<circle cx="53.4542" cy="14.1817" r="1.09091" fill="#E2626B"/>
<circle cx="53.4542" cy="66.5455" r="1.09091" fill="#E2626B"/>
<circle cx="1.09091" cy="40.3639" r="1.09091" fill="#E2626B"/>
<circle cx="1.09091" cy="92.7271" r="1.09091" fill="#E2626B"/>
<circle cx="1.09091" cy="118.909" r="1.09091" fill="#E2626B"/>
<circle cx="53.4542" cy="40.3639" r="1.09091" fill="#E2626B"/>
<circle cx="53.4542" cy="92.7271" r="1.09091" fill="#E2626B"/>
<circle cx="53.4542" cy="118.909" r="1.09091" fill="#E2626B"/>
<circle cx="27.2726" cy="1.09091" r="1.09091" fill="#E2626B"/>
<circle cx="27.2726" cy="53.4547" r="1.09091" fill="#E2626B"/>
<circle cx="79.6368" cy="1.09091" r="1.09091" fill="#E2626B"/>
<circle cx="105.818" cy="1.09091" r="1.09091" fill="#E2626B"/>
<circle cx="79.6368" cy="53.4547" r="1.09091" fill="#E2626B"/>
<circle cx="105.818" cy="53.4547" r="1.09091" fill="#E2626B"/>
<circle cx="27.2726" cy="27.2726" r="1.09091" fill="#E2626B"/>
<circle cx="27.2726" cy="79.6363" r="1.09091" fill="#E2626B"/>
<circle cx="27.2726" cy="105.818" r="1.09091" fill="#E2626B"/>
<circle cx="79.6368" cy="27.2726" r="1.09091" fill="#E2626B"/>
<circle cx="105.818" cy="27.2726" r="1.09091" fill="#E2626B"/>
<circle cx="79.6368" cy="79.6363" r="1.09091" fill="#E2626B"/>
<circle cx="105.818" cy="79.6363" r="1.09091" fill="#E2626B"/>
<circle cx="79.6368" cy="105.818" r="1.09091" fill="#E2626B"/>
<circle cx="105.818" cy="105.818" r="1.09091" fill="#E2626B"/>
<circle cx="27.2726" cy="14.1817" r="1.09091" fill="#E2626B"/>
<circle cx="27.2726" cy="66.5455" r="1.09091" fill="#E2626B"/>
<circle cx="79.6368" cy="14.1817" r="1.09091" fill="#E2626B"/>
<circle cx="105.818" cy="14.1817" r="1.09091" fill="#E2626B"/>
<circle cx="79.6368" cy="66.5455" r="1.09091" fill="#E2626B"/>
<circle cx="105.818" cy="66.5455" r="1.09091" fill="#E2626B"/>
<circle cx="27.2726" cy="40.3639" r="1.09091" fill="#E2626B"/>
<circle cx="27.2726" cy="92.7271" r="1.09091" fill="#E2626B"/>
<circle cx="27.2726" cy="118.909" r="1.09091" fill="#E2626B"/>
<circle cx="79.6368" cy="40.3639" r="1.09091" fill="#E2626B"/>
<circle cx="105.818" cy="40.3639" r="1.09091" fill="#E2626B"/>
<circle cx="79.6368" cy="92.7271" r="1.09091" fill="#E2626B"/>
<circle cx="105.818" cy="92.7271" r="1.09091" fill="#E2626B"/>
<circle cx="79.6368" cy="118.909" r="1.09091" fill="#E2626B"/>
<circle cx="105.818" cy="118.909" r="1.09091" fill="#E2626B"/>
<circle cx="14.1817" cy="1.09091" r="1.09091" fill="#E2626B"/>
<circle cx="14.1817" cy="53.4547" r="1.09091" fill="#E2626B"/>
<circle cx="66.545" cy="1.09091" r="1.09091" fill="#E2626B"/>
<circle cx="66.545" cy="53.4547" r="1.09091" fill="#E2626B"/>
<circle cx="14.1817" cy="27.2726" r="1.09091" fill="#E2626B"/>
<circle cx="14.1817" cy="79.6363" r="1.09091" fill="#E2626B"/>
<circle cx="14.1817" cy="105.818" r="1.09091" fill="#E2626B"/>
<circle cx="66.545" cy="27.2726" r="1.09091" fill="#E2626B"/>
<circle cx="66.545" cy="79.6363" r="1.09091" fill="#E2626B"/>
<circle cx="66.545" cy="105.818" r="1.09091" fill="#E2626B"/>
<circle cx="14.1817" cy="14.1817" r="1.09091" fill="#E2626B"/>
<circle cx="14.1817" cy="66.5455" r="1.09091" fill="#E2626B"/>
<circle cx="66.545" cy="14.1817" r="1.09091" fill="#E2626B"/>
<circle cx="66.545" cy="66.5455" r="1.09091" fill="#E2626B"/>
<circle cx="14.1817" cy="40.3639" r="1.09091" fill="#E2626B"/>
<circle cx="14.1817" cy="92.7271" r="1.09091" fill="#E2626B"/>
<circle cx="14.1817" cy="118.909" r="1.09091" fill="#E2626B"/>
<circle cx="66.545" cy="40.3639" r="1.09091" fill="#E2626B"/>
<circle cx="66.545" cy="92.7271" r="1.09091" fill="#E2626B"/>
<circle cx="66.545" cy="118.909" r="1.09091" fill="#E2626B"/>
<circle cx="40.3634" cy="1.09091" r="1.09091" fill="#E2626B"/>
<circle cx="40.3634" cy="53.4547" r="1.09091" fill="#E2626B"/>
<circle cx="92.7276" cy="1.09091" r="1.09091" fill="#E2626B"/>
<circle cx="118.909" cy="1.09091" r="1.09091" fill="#E2626B"/>
<circle cx="92.7276" cy="53.4547" r="1.09091" fill="#E2626B"/>
<circle cx="118.909" cy="53.4547" r="1.09091" fill="#E2626B"/>
<circle cx="40.3634" cy="27.2726" r="1.09091" fill="#E2626B"/>
<circle cx="40.3634" cy="79.6363" r="1.09091" fill="#E2626B"/>
<circle cx="40.3634" cy="105.818" r="1.09091" fill="#E2626B"/>
<circle cx="92.7276" cy="27.2726" r="1.09091" fill="#E2626B"/>
<circle cx="118.909" cy="27.2726" r="1.09091" fill="#E2626B"/>
<circle cx="92.7276" cy="79.6363" r="1.09091" fill="#E2626B"/>
<circle cx="118.909" cy="79.6363" r="1.09091" fill="#E2626B"/>
<circle cx="92.7276" cy="105.818" r="1.09091" fill="#E2626B"/>
<circle cx="118.909" cy="105.818" r="1.09091" fill="#E2626B"/>
<circle cx="40.3634" cy="14.1817" r="1.09091" fill="#E2626B"/>
<circle cx="40.3634" cy="66.5455" r="1.09091" fill="#E2626B"/>
<circle cx="92.7276" cy="14.1817" r="1.09091" fill="#E2626B"/>
<circle cx="118.909" cy="14.1817" r="1.09091" fill="#E2626B"/>
<circle cx="92.7276" cy="66.5455" r="1.09091" fill="#E2626B"/>
<circle cx="118.909" cy="66.5455" r="1.09091" fill="#E2626B"/>
<circle cx="40.3634" cy="40.3639" r="1.09091" fill="#E2626B"/>
<circle cx="40.3634" cy="92.7271" r="1.09091" fill="#E2626B"/>
<circle cx="40.3634" cy="118.909" r="1.09091" fill="#E2626B"/>
<circle cx="92.7276" cy="40.3639" r="1.09091" fill="#E2626B"/>
<circle cx="118.909" cy="40.3639" r="1.09091" fill="#E2626B"/>
<circle cx="92.7276" cy="92.7271" r="1.09091" fill="#E2626B"/>
<circle cx="118.909" cy="92.7271" r="1.09091" fill="#E2626B"/>
<circle cx="92.7276" cy="118.909" r="1.09091" fill="#E2626B"/>
<circle cx="118.909" cy="118.909" r="1.09091" fill="#E2626B"/>
</svg>
